<?xml version="1.0" standalone="no"?>
<!DOCTYPE svg PUBLIC "-//W3C//DTD SVG 20010904//EN"
 "http://www.w3.org/TR/2001/REC-SVG-20010904/DTD/svg10.dtd">
<svg version="1.0" xmlns="http://www.w3.org/2000/svg"
 width="20.000000pt" height="20.000000pt" viewBox="0 0 20.000000 20.000000"
 preserveAspectRatio="xMidYMid meet">
<metadata>
Created by potrace 1.16, written by Peter Selinger 2001-2019
</metadata>
<g transform="translate(0.000000,20.000000) scale(0.005000,-0.005000)"
fill="#000000" stroke="none">
<path d="M0 2000 l0 -2000 2000 0 2000 0 0 2000 0 2000 -2000 0 -2000 0 0
-2000z m2955 1340 l165 0 0 -55 0 -55 -165 0 -165 0 0 -202 c0 -223 6 -250 63
-292 23 -17 43 -21 110 -21 45 0 99 4 120 9 l37 8 0 -56 c0 -52 -2 -56 -27
-63 -16 -5 -82 -8 -148 -8 -98 0 -127 4 -155 19 -49 26 -79 55 -103 101 -20
37 -22 57 -25 273 l-4 232 -99 0 -99 0 0 55 0 55 100 0 100 0 0 103 0 104 63
14 62 14 3 -117 3 -118 164 0z m-1633 -6 c63 -22 99 -53 124 -108 23 -50 24
-57 24 -333 l0 -283 -60 0 -60 0 0 45 0 46 -38 -31 c-133 -107 -355 -91 -419
29 -32 61 -32 151 0 212 48 91 147 129 334 129 l113 0 0 53 c0 62 -25 109 -70
132 -57 29 -248 14 -323 -26 -17 -10 -18 -6 -15 52 l3 63 45 13 c113 33 260
36 342 7z m885 5 c71 -22 133 -132 133 -236 l0 -43 -65 0 -65 0 0 38 c0 46
-32 117 -58 131 -12 6 -40 11 -65 11 -54 0 -118 -40 -177 -110 l-40 -48 0
-236 0 -236 -65 0 -65 0 0 365 0 365 60 0 60 0 0 -61 0 -62 48 46 c96 89 183
112 299 76z m-99 -1282 c26 -27 27 -31 31 -157 l3 -130 -31 0 c-20 0 -31 5
-31 14 0 11 -10 10 -49 -7 -44 -18 -55 -19 -91 -8 -33 10 -45 20 -56 47 -32
75 17 129 126 140 59 6 70 9 70 25 0 11 -10 29 -21 40 -18 18 -30 20 -73 16
-28 -2 -59 -8 -69 -12 -16 -7 -18 -4 -15 21 4 35 29 44 116 41 53 -3 67 -7 90
-30z m-638 -1122 l0 -515 -60 0 -60 0 0 65 0 65 -42 -47 c-57 -61 -125 -93
-203 -93 -155 1 -242 111 -253 322 -10 195 51 324 186 390 64 32 71 33 184 33
l118 0 0 148 0 147 65 0 65 0 0 -515z m599 225 c122 -20 213 -90 246 -191 57
-171 26 -369 -73 -465 -63 -61 -125 -87 -223 -92 -186 -9 -300 68 -345 234
-25 93 -16 241 18 316 50 109 137 178 249 197 30 5 56 9 59 10 3 0 34 -4 69
-9z m744 -12 c22 -12 47 -67 47 -104 0 -24 5 -20 38 32 43 66 76 89 132 89 54
0 87 -22 112 -74 22 -44 23 -57 26 -358 l3 -313 -60 0 -60 0 -3 305 c-3 266
-5 306 -19 321 -28 28 -56 8 -104 -74 l-45 -77 0 -237 0 -238 -60 0 -60 0 0
304 c0 264 -2 307 -16 320 -8 9 -19 16 -23 16 -21 0 -60 -44 -89 -98 l-32 -60
0 -241 0 -241 -60 0 -60 0 0 365 0 365 50 0 50 0 0 -62 1 -63 23 37 c32 54 57
79 91 94 31 14 84 11 118 -8z"/>
<path d="M1094 2929 c-68 -19 -102 -83 -83 -153 13 -49 42 -66 109 -66 62 0
121 24 181 71 38 30 39 32 39 95 l0 64 -107 -1 c-60 0 -122 -5 -139 -10z"/>
<path d="M1105 1036 c-40 -17 -90 -75 -106 -123 -17 -49 -18 -225 -1 -281 31
-103 117 -140 206 -88 25 14 66 51 91 82 l45 56 0 172 0 173 -39 11 c-51 16
-158 14 -196 -2z"/>
<path d="M1915 1036 c-73 -34 -114 -110 -122 -226 -9 -131 40 -241 124 -276
48 -20 130 -17 177 6 83 41 121 133 114 273 -5 99 -32 164 -86 205 -29 22 -47
27 -106 30 -45 1 -82 -3 -101 -12z"/>
</g>
</svg>
